# xmcd CD database file
#
# Track frame offsets:
#	150
#	28719
#	49106
#	66102
#	82887
#	109120
#	126152
#	138303
#	160284
#	177629
#
# Disc length: 2576 seconds
#
# Revision: 1
# Processed by: cddbd v1.5.2PL0 Copyright (c) Steve Scherf et al.
# Submitted via: CDex 1.51
#
DISCID=860a0e0a
DTITLE=Vargas, Pacheco and Condori - Musiche Per Lo Stretching
DYEAR=2003
DGENRE=New Age
TTITLE0=A Son Of The Mountain
TTITLE1=The Pledger
TTITLE2=Nature's Mirror
TTITLE3=High Wind
TTITLE4=Sun Dance
TTITLE5=The Winter Camp
TTITLE6=Crying To The Spirits
TTITLE7=Dancing To Restore An Eclipsed Moon
TTITLE8=The Snake Dance
TTITLE9=Before The Final Journey
EXTD=YEAR: 2003
EXTT0=
EXTT1=
EXTT2=
EXTT3=
EXTT4=
EXTT5=
EXTT6=
EXTT7=
EXTT8=
EXTT9=
PLAYORDER=
